<?xml version="1.0" standalone="no"?><!DOCTYPE svg PUBLIC "-//W3C//DTD SVG 1.1//EN" "http://www.w3.org/Graphics/SVG/1.1/DTD/svg11.dtd"><svg t="1563435381980" class="icon" viewBox="0 0 1024 1024" version="1.1" xmlns="http://www.w3.org/2000/svg" p-id="6201" xmlns:xlink="http://www.w3.org/1999/xlink" width="200" height="200"><defs><style type="text/css"></style></defs><path d="M822.89 408.37c0-171.7-139.19-310.89-310.89-310.89S201.11 236.67 201.11 408.37c0 140.232 92.854 258.762 220.427 297.504L512 796.337l90.463-90.463C730.036 667.132 822.89 548.602 822.89 408.37zM512 302.984c58.203 0 105.386 47.183 105.386 105.386S570.203 513.756 512 513.756 406.614 466.573 406.614 408.37 453.797 302.984 512 302.984z" fill="#999999" p-id="6202"></path><path d="M178.276 876.462a333.724 50.059 0 1 0 667.448 0 333.724 50.059 0 1 0-667.448 0Z" fill="#999999" p-id="6203"></path></svg>