<?xml version="1.0" standalone="no"?><!DOCTYPE svg PUBLIC "-//W3C//DTD SVG 1.1//EN" "http://www.w3.org/Graphics/SVG/1.1/DTD/svg11.dtd"><svg t="1563435491845" class="icon" viewBox="0 0 1024 1024" version="1.1" xmlns="http://www.w3.org/2000/svg" p-id="8225" xmlns:xlink="http://www.w3.org/1999/xlink" width="200" height="200"><defs><style type="text/css"></style></defs><path d="M512 920.917333c-225.28 0-408.917333-183.637333-408.917333-408.917333 0-174.762667 110.592-330.410667 275.797333-386.389333 10.922667-3.413333 22.528 2.048 25.941333 12.970666 3.413333 10.922667-2.048 22.528-12.970666 25.941334C243.029333 215.04 143.36 354.986667 143.36 512.682667c0 202.752 165.205333 367.957333 367.957333 367.957333s367.957333-165.205333 367.957334-367.957333c0-157.696-99.669333-296.96-248.490667-348.16-10.922667-3.413333-16.384-15.018667-12.970667-25.941334 3.413333-10.922667 15.018667-16.384 25.941334-12.970666 165.205333 55.978667 275.797333 211.626667 275.797333 386.389333 1.365333 225.28-182.272 408.917333-407.552 408.917333z" p-id="8226" fill="#999999"></path><path d="M512 532.48c-11.605333 0-20.48-8.874667-20.48-20.48V123.562667c0-11.605333 8.874667-20.48 20.48-20.48s20.48 8.874667 20.48 20.48V512c0 11.605333-8.874667 20.48-20.48 20.48z" p-id="8227" fill="#999999"></path></svg>