<?xml version="1.0" standalone="no"?><!DOCTYPE svg PUBLIC "-//W3C//DTD SVG 1.1//EN" "http://www.w3.org/Graphics/SVG/1.1/DTD/svg11.dtd"><svg t="1563503982846" class="icon" viewBox="0 0 1024 1024" version="1.1" xmlns="http://www.w3.org/2000/svg" p-id="3636" data-spm-anchor-id="a313x.7781069.0.i10" xmlns:xlink="http://www.w3.org/1999/xlink" width="200" height="200"><defs><style type="text/css"></style></defs><path d="M426.666667 132.266667H200.533333c-38.4 0-68.266667 29.866667-68.266666 68.266666V426.666667c0 38.4 29.866667 68.266667 68.266666 68.266666H426.666667c38.4 0 68.266667-29.866667 68.266666-68.266666V200.533333c0-38.4-29.866667-68.266667-68.266666-68.266666z m12.8 294.4c0 8.533333-4.266667 12.8-12.8 12.8H200.533333c-8.533333 0-12.8-4.266667-12.8-12.8V200.533333c0-8.533333 4.266667-12.8 12.8-12.8H426.666667c8.533333 0 12.8 4.266667 12.8 12.8V426.666667zM823.466667 132.266667H597.333333c-38.4 0-68.266667 29.866667-68.266666 68.266666V426.666667c0 38.4 29.866667 68.266667 68.266666 68.266666h221.866667c38.4 0 68.266667-29.866667 68.266667-68.266666V200.533333c4.266667-38.4-25.6-68.266667-64-68.266666z m12.8 294.4c0 8.533333-4.266667 12.8-12.8 12.8H597.333333c-8.533333 0-12.8-4.266667-12.8-12.8V200.533333c0-8.533333 4.266667-12.8 12.8-12.8h221.866667c8.533333 0 12.8 4.266667 12.8 12.8V426.666667zM426.666667 529.066667H200.533333c-38.4 0-68.266667 29.866667-68.266666 68.266666v221.866667c0 38.4 29.866667 68.266667 68.266666 68.266667H426.666667c38.4 0 68.266667-29.866667 68.266666-68.266667V597.333333c0-38.4-29.866667-68.266667-68.266666-68.266666z m12.8 294.4c0 8.533333-4.266667 12.8-12.8 12.8H200.533333c-8.533333 0-12.8-4.266667-12.8-12.8V597.333333c0-8.533333 4.266667-12.8 12.8-12.8H426.666667c8.533333 0 12.8 4.266667 12.8 12.8v226.133334zM823.466667 529.066667H597.333333c-38.4 0-68.266667 29.866667-68.266666 68.266666v221.866667c0 38.4 29.866667 68.266667 68.266666 68.266667h221.866667c38.4 0 68.266667-29.866667 68.266667-68.266667V597.333333c4.266667-38.4-25.6-68.266667-64-68.266666z m12.8 294.4c0 8.533333-4.266667 12.8-12.8 12.8H597.333333c-8.533333 0-12.8-4.266667-12.8-12.8V597.333333c0-8.533333 4.266667-12.8 12.8-12.8h221.866667c8.533333 0 12.8 4.266667 12.8 12.8v226.133334z" fill="#0089dc" p-id="3637"></path></svg>