<?xml version="1.0" standalone="no"?><!DOCTYPE svg PUBLIC "-//W3C//DTD SVG 1.1//EN" "http://www.w3.org/Graphics/SVG/1.1/DTD/svg11.dtd"><svg t="1563434466272" class="icon" viewBox="0 0 1024 1024" version="1.1" xmlns="http://www.w3.org/2000/svg" p-id="3879" xmlns:xlink="http://www.w3.org/1999/xlink" width="200" height="200"><defs><style type="text/css"></style></defs><path d="M796.2 618.8c-50.3-19.2-103-33.4-157.5-42.2-10-2.3-17.6-11.2-17.6-21.9 0-5.6 2.1-10.8 5.5-14.7-0.1 0.2-0.4 0.2-0.6 0.4 15.6-18.5 29.1-39.9 40.1-63.1 13.9-6 27.5-17.9 37.3-34.4 18.5-31.2 16.2-66.1-5.2-78.1-0.7-0.4-1.4-0.5-2.1-0.8 0.1-1.1 0.1-2.3 0.1-3.4h1v-93.8c0-62.1-50.4-112.5-112.4-112.5-0.4 0-0.7 0.1-1.1 0.1C556 131 520.4 117 481.5 117c-84.7 0-153.7 66.2-158.6 149.6h-0.5v93.7h1c0.1 1.1 0.1 2.3 0.1 3.4-0.7 0.3-1.4 0.4-2.1 0.8-21.3 12-23.6 47-5.2 78.1 9.8 16.5 23.4 28.4 37.3 34.4 11 23.2 24.5 44.6 40.1 63.1-0.2-0.1-0.5-0.2-0.6-0.4 3.4 4 5.5 9.1 5.5 14.7 0 10.8-7.6 19.6-17.6 21.9-54.3 8.8-106.8 22.9-157 42-51.9 23-88.4 74.9-88.4 135.7v20c0 44.8 29.7 82.4 70.3 94.7 97.8 22.3 199.5 34.3 304 34.3 104.4 0 205.9-12 303.6-34.2 40.8-12.1 70.7-49.8 70.7-94.8v-19.7c0-60.6-36.2-112.3-87.9-135.5z" p-id="3880" fill="#999999"></path></svg>