<?xml version="1.0" standalone="no"?><!DOCTYPE svg PUBLIC "-//W3C//DTD SVG 1.1//EN" "http://www.w3.org/Graphics/SVG/1.1/DTD/svg11.dtd"><svg t="1563445365599" class="icon" viewBox="0 0 1024 1024" version="1.1" xmlns="http://www.w3.org/2000/svg" p-id="10578" xmlns:xlink="http://www.w3.org/1999/xlink" width="200" height="200"><defs><style type="text/css"></style></defs><path d="M199.68 300.032m-49.152 0a4.8 4.8 0 1 0 98.304 0 4.8 4.8 0 1 0-98.304 0Z" p-id="10579" fill="#cccccc"></path><path d="M402.432 343.04 829.44 343.04c23.552 0 44.032-19.456 44.032-44.032S852.992 256 829.44 256L402.432 256c-23.552 0-44.032 19.456-44.032 44.032S377.856 343.04 402.432 343.04z" p-id="10580" fill="#cccccc"></path><path d="M199.68 512m-49.152 0a4.8 4.8 0 1 0 98.304 0 4.8 4.8 0 1 0-98.304 0Z" p-id="10581" fill="#cccccc"></path><path d="M829.44 468.992 402.432 468.992c-23.552 0-44.032 19.456-44.032 44.032s19.456 44.032 44.032 44.032L829.44 557.056c23.552 0 44.032-19.456 44.032-44.032S852.992 468.992 829.44 468.992z" p-id="10582" fill="#cccccc"></path><path d="M199.68 724.992m-49.152 0a4.8 4.8 0 1 0 98.304 0 4.8 4.8 0 1 0-98.304 0Z" p-id="10583" fill="#cccccc"></path><path d="M829.44 680.96 402.432 680.96c-23.552 0-44.032 19.456-44.032 44.032s19.456 44.032 44.032 44.032L829.44 769.024c23.552 0 44.032-19.456 44.032-44.032S852.992 680.96 829.44 680.96z" p-id="10584" fill="#cccccc"></path></svg>