<?xml version="1.0" standalone="no"?><!DOCTYPE svg PUBLIC "-//W3C//DTD SVG 1.1//EN" "http://www.w3.org/Graphics/SVG/1.1/DTD/svg11.dtd"><svg t="1563504053270" class="icon" viewBox="0 0 1024 1024" version="1.1" xmlns="http://www.w3.org/2000/svg" p-id="4057" xmlns:xlink="http://www.w3.org/1999/xlink" width="200" height="200"><defs><style type="text/css"></style></defs><path d="M397.6 468h-160c-40 0-72-32-72-72v-160c0-40 32-72 72-72h160c40 0 72 32 72 72v160c0 40-32 72-72 72z m-160-256c-13.6 0-24 10.4-24 24v160c0 13.6 10.4 24 24 24h160c13.6 0 24-10.4 24-24v-160c0-13.6-10.4-24-24-24h-160zM874.4 248h-304c-13.6 0-24-10.4-24-24s10.4-24 24-24h304c13.6 0 24 10.4 24 24s-10.4 24-24 24zM874.4 440h-304c-13.6 0-24-10.4-24-24s10.4-24 24-24h304c13.6 0 24 10.4 24 24s-10.4 24-24 24zM397.6 860h-160c-40 0-72-32-72-72v-160c0-40 32-72 72-72h160c40 0 72 32 72 72v160c0 40-32 72-72 72z m-160-256c-13.6 0-24 10.4-24 24v160c0 13.6 10.4 24 24 24h160c13.6 0 24-10.4 24-24v-160c0-13.6-10.4-24-24-24h-160zM874.4 632h-304c-13.6 0-24-10.4-24-24s10.4-24 24-24h304c13.6 0 24 10.4 24 24s-10.4 24-24 24zM874.4 824h-304c-13.6 0-24-10.4-24-24s10.4-24 24-24h304c13.6 0 24 10.4 24 24s-10.4 24-24 24z" fill="#0089dc" p-id="4058"></path></svg>